<?xml version="1.0" encoding="UTF-8" standalone="no"?>
<!-- Created with Inkscape (http://www.inkscape.org/) -->

<svg
   xmlns:dc="http://purl.org/dc/elements/1.1/"
   xmlns:cc="http://creativecommons.org/ns#"
   xmlns:rdf="http://www.w3.org/1999/02/22-rdf-syntax-ns#"
   xmlns:svg="http://www.w3.org/2000/svg"
   xmlns="http://www.w3.org/2000/svg"
   xmlns:sodipodi="http://sodipodi.sourceforge.net/DTD/sodipodi-0.dtd"
   xmlns:inkscape="http://www.inkscape.org/namespaces/inkscape"
   width="578.81189"
   height="332.409"
   id="svg2"
   version="1.1"
   inkscape:version="0.48.5 r10040"
   sodipodi:docname="New document 1">
  <defs
     id="defs4" />
  <sodipodi:namedview
     id="base"
     pagecolor="#ffffff"
     bordercolor="#666666"
     borderopacity="1.0"
     inkscape:pageopacity="0.0"
     inkscape:pageshadow="2"
     inkscape:zoom="1.4"
     inkscape:cx="281.34757"
     inkscape:cy="163.50507"
     inkscape:document-units="px"
     inkscape:current-layer="layer1"
     showgrid="true"
     fit-margin-top="10"
     fit-margin-left="10"
     fit-margin-right="10"
     fit-margin-bottom="10"
     inkscape:window-width="1392"
     inkscape:window-height="875"
     inkscape:window-x="48"
     inkscape:window-y="0"
     inkscape:window-maximized="1">
    <inkscape:grid
       type="xygrid"
       id="grid3005"
       empspacing="5"
       visible="true"
       enabled="true"
       snapvisiblegridlinesonly="true"
       originx="6.2044963px"
       originy="-672.591px" />
  </sodipodi:namedview>
  <metadata
     id="metadata7">
    <rdf:RDF>
      <cc:Work
         rdf:about="">
        <dc:format>image/svg+xml</dc:format>
        <dc:type
           rdf:resource="http://purl.org/dc/dcmitype/StillImage" />
        <dc:title></dc:title>
      </cc:Work>
    </rdf:RDF>
  </metadata>
  <g
     inkscape:label="Layer 1"
     inkscape:groupmode="layer"
     id="layer1"
     transform="translate(6.2044963,-47.362182)">
    <path
       style="fill:none;stroke:#00ff00;stroke-width:3;stroke-linecap:butt;stroke-linejoin:miter;stroke-miterlimit:4;stroke-opacity:1;stroke-dasharray:none"
       d="m 190,362.36218 c 9.34937,-40.20542 18.29618,-80.83257 0,-150"
       id="path4304-1"
       inkscape:connector-curvature="0"
       sodipodi:nodetypes="cc" />
    <path
       style="fill:none;stroke:#00ff00;stroke-width:3;stroke-linecap:butt;stroke-linejoin:miter;stroke-miterlimit:4;stroke-opacity:1;stroke-dasharray:none"
       d="m 190,212.36218 c 9.34937,-40.20542 18.29618,-80.83257 0,-149.999997"
       id="path4304"
       inkscape:connector-curvature="0"
       sodipodi:nodetypes="cc" />
    <path
       style="fill:none;stroke:#00ff00;stroke-width:3.28633523;stroke-linecap:butt;stroke-linejoin:miter;stroke-miterlimit:4;stroke-opacity:1;stroke-dasharray:none"
       d="m 190,212.36218 c -48.2465,-9.34937 -96.999088,-18.29618 -180,0"
       id="path4304-2"
       inkscape:connector-curvature="0"
       sodipodi:nodetypes="cc" />
    <path
       style="fill:none;stroke:#00ff00;stroke-width:3.28633523;stroke-linecap:butt;stroke-linejoin:miter;stroke-miterlimit:4;stroke-opacity:1;stroke-dasharray:none"
       d="m 370,212.36218 c -48.2465,-9.34937 -96.99909,-18.29618 -180,0"
       id="path4304-2-7"
       inkscape:connector-curvature="0"
       sodipodi:nodetypes="cc" />
    <path
       style="fill:none;stroke:#0000ff;stroke-width:3;stroke-linecap:butt;stroke-linejoin:miter;stroke-miterlimit:4;stroke-opacity:1;stroke-dasharray:none"
       d="m 190,137.36218 0,150"
       id="path4300"
       inkscape:connector-curvature="0" />
    <path
       style="fill:none;stroke:#0000ff;stroke-width:3;stroke-linecap:butt;stroke-linejoin:miter;stroke-miterlimit:4;stroke-opacity:1;stroke-dasharray:none"
       d="m 100,212.36218 180,0"
       id="path4302"
       inkscape:connector-curvature="0" />
    <path
       style="fill:none;stroke:#ff0000;stroke-width:3;stroke-linecap:butt;stroke-linejoin:miter;stroke-miterlimit:4;stroke-opacity:1;stroke-dasharray:none"
       d="m 100,287.36218 180,-150"
       id="path4296"
       inkscape:connector-curvature="0" />
    <path
       style="fill:none;stroke:#ff0000;stroke-width:3;stroke-linecap:butt;stroke-linejoin:miter;stroke-miterlimit:4;stroke-opacity:1;stroke-dasharray:none"
       d="m 100,137.36218 180,150"
       id="path4298"
       inkscape:connector-curvature="0" />
    <path
       sodipodi:type="arc"
       style="fill:#808080;stroke-width:1.5;stroke-linecap:round;stroke-linejoin:miter;stroke-miterlimit:4;stroke-dasharray:none"
       id="path2985"
       sodipodi:cx="142.85715"
       sodipodi:cy="189.50504"
       sodipodi:rx="14.285714"
       sodipodi:ry="14.285714"
       d="m 157.14286,189.50504 c 0,7.88978 -6.39593,14.28571 -14.28571,14.28571 -7.88978,0 -14.28572,-6.39593 -14.28572,-14.28571 0,-7.88979 6.39594,-14.28572 14.28572,-14.28572 7.88978,0 14.28571,6.39593 14.28571,14.28572 z"
       transform="matrix(0.43431457,0,0,0.43431457,37.95506,56.261878)" />
    <path
       sodipodi:type="arc"
       style="fill:#808080;stroke-width:1.5;stroke-linecap:round;stroke-linejoin:miter;stroke-miterlimit:4;stroke-dasharray:none"
       id="path2985-1"
       sodipodi:cx="142.85715"
       sodipodi:cy="189.50504"
       sodipodi:rx="14.285714"
       sodipodi:ry="14.285714"
       d="m 157.14286,189.50504 c 0,7.88978 -6.39593,14.28571 -14.28571,14.28571 -7.88978,0 -14.28572,-6.39593 -14.28572,-14.28571 0,-7.88979 6.39594,-14.28572 14.28572,-14.28572 7.88978,0 14.28571,6.39593 14.28571,14.28572 z"
       transform="matrix(0.43431457,0,0,0.43431457,127.95506,56.261878)" />
    <path
       sodipodi:type="arc"
       style="fill:#808080;stroke-width:1.5;stroke-linecap:round;stroke-linejoin:miter;stroke-miterlimit:4;stroke-dasharray:none"
       id="path2985-3"
       sodipodi:cx="142.85715"
       sodipodi:cy="189.50504"
       sodipodi:rx="14.285714"
       sodipodi:ry="14.285714"
       d="m 157.14286,189.50504 c 0,7.88978 -6.39593,14.28571 -14.28571,14.28571 -7.88978,0 -14.28572,-6.39593 -14.28572,-14.28571 0,-7.88979 6.39594,-14.28572 14.28572,-14.28572 7.88978,0 14.28571,6.39593 14.28571,14.28572 z"
       transform="matrix(0.43431457,0,0,0.43431457,37.95506,131.26188)" />
    <path
       sodipodi:type="arc"
       style="fill:#000000;stroke-width:1.5;stroke-linecap:round;stroke-linejoin:miter;stroke-miterlimit:4;stroke-dasharray:none"
       id="path2985-3-9"
       sodipodi:cx="142.85715"
       sodipodi:cy="189.50504"
       sodipodi:rx="14.285714"
       sodipodi:ry="14.285714"
       d="m 157.14286,189.50504 c 0,7.88978 -6.39593,14.28571 -14.28571,14.28571 -7.88978,0 -14.28572,-6.39593 -14.28572,-14.28571 0,-7.88979 6.39594,-14.28572 14.28572,-14.28572 7.88978,0 14.28571,6.39593 14.28571,14.28572 z"
       transform="matrix(0.43431457,0,0,0.43431457,127.95506,131.26188)" />
    <path
       sodipodi:type="arc"
       style="fill:#808080;stroke-width:1.5;stroke-linecap:round;stroke-linejoin:miter;stroke-miterlimit:4;stroke-dasharray:none"
       id="path2985-0"
       sodipodi:cx="142.85715"
       sodipodi:cy="189.50504"
       sodipodi:rx="14.285714"
       sodipodi:ry="14.285714"
       d="m 157.14286,189.50504 c 0,7.88978 -6.39593,14.28571 -14.28571,14.28571 -7.88978,0 -14.28572,-6.39593 -14.28572,-14.28571 0,-7.88979 6.39594,-14.28572 14.28572,-14.28572 7.88978,0 14.28571,6.39593 14.28571,14.28572 z"
       transform="matrix(0.43431457,0,0,0.43431457,37.95506,131.26188)" />
    <path
       sodipodi:type="arc"
       style="fill:#000000;stroke-width:1.5;stroke-linecap:round;stroke-linejoin:miter;stroke-miterlimit:4;stroke-dasharray:none"
       id="path2985-1-6"
       sodipodi:cx="142.85715"
       sodipodi:cy="189.50504"
       sodipodi:rx="14.285714"
       sodipodi:ry="14.285714"
       d="m 157.14286,189.50504 c 0,7.88978 -6.39593,14.28571 -14.28571,14.28571 -7.88978,0 -14.28572,-6.39593 -14.28572,-14.28571 0,-7.88979 6.39594,-14.28572 14.28572,-14.28572 7.88978,0 14.28571,6.39593 14.28571,14.28572 z"
       transform="matrix(0.43431457,0,0,0.43431457,127.95506,131.26188)" />
    <path
       sodipodi:type="arc"
       style="fill:#808080;stroke-width:1.5;stroke-linecap:round;stroke-linejoin:miter;stroke-miterlimit:4;stroke-dasharray:none"
       id="path2985-3-0"
       sodipodi:cx="142.85715"
       sodipodi:cy="189.50504"
       sodipodi:rx="14.285714"
       sodipodi:ry="14.285714"
       d="m 157.14286,189.50504 c 0,7.88978 -6.39593,14.28571 -14.28571,14.28571 -7.88978,0 -14.28572,-6.39593 -14.28572,-14.28571 0,-7.88979 6.39594,-14.28572 14.28572,-14.28572 7.88978,0 14.28571,6.39593 14.28571,14.28572 z"
       transform="matrix(0.43431457,0,0,0.43431457,37.95506,206.26188)" />
    <path
       sodipodi:type="arc"
       style="fill:#808080;stroke-width:1.5;stroke-linecap:round;stroke-linejoin:miter;stroke-miterlimit:4;stroke-dasharray:none"
       id="path2985-3-9-4"
       sodipodi:cx="142.85715"
       sodipodi:cy="189.50504"
       sodipodi:rx="14.285714"
       sodipodi:ry="14.285714"
       d="m 157.14286,189.50504 c 0,7.88978 -6.39593,14.28571 -14.28571,14.28571 -7.88978,0 -14.28572,-6.39593 -14.28572,-14.28571 0,-7.88979 6.39594,-14.28572 14.28572,-14.28572 7.88978,0 14.28571,6.39593 14.28571,14.28572 z"
       transform="matrix(0.43431457,0,0,0.43431457,127.95506,206.26188)" />
    <path
       sodipodi:type="arc"
       style="fill:#808080;stroke-width:1.5;stroke-linecap:round;stroke-linejoin:miter;stroke-miterlimit:4;stroke-dasharray:none"
       id="path2985-5"
       sodipodi:cx="142.85715"
       sodipodi:cy="189.50504"
       sodipodi:rx="14.285714"
       sodipodi:ry="14.285714"
       d="m 157.14286,189.50504 c 0,7.88978 -6.39593,14.28571 -14.28571,14.28571 -7.88978,0 -14.28572,-6.39593 -14.28572,-14.28571 0,-7.88979 6.39594,-14.28572 14.28572,-14.28572 7.88978,0 14.28571,6.39593 14.28571,14.28572 z"
       transform="matrix(0.43431457,0,0,0.43431457,127.95506,56.261878)" />
    <path
       sodipodi:type="arc"
       style="fill:#808080;stroke-width:1.5;stroke-linecap:round;stroke-linejoin:miter;stroke-miterlimit:4;stroke-dasharray:none"
       id="path2985-1-3"
       sodipodi:cx="142.85715"
       sodipodi:cy="189.50504"
       sodipodi:rx="14.285714"
       sodipodi:ry="14.285714"
       d="m 157.14286,189.50504 c 0,7.88978 -6.39593,14.28571 -14.28571,14.28571 -7.88978,0 -14.28572,-6.39593 -14.28572,-14.28571 0,-7.88979 6.39594,-14.28572 14.28572,-14.28572 7.88978,0 14.28571,6.39593 14.28571,14.28572 z"
       transform="matrix(0.43431457,0,0,0.43431457,217.95506,56.261878)" />
    <path
       sodipodi:type="arc"
       style="fill:#000000;stroke-width:1.5;stroke-linecap:round;stroke-linejoin:miter;stroke-miterlimit:4;stroke-dasharray:none"
       id="path2985-3-5"
       sodipodi:cx="142.85715"
       sodipodi:cy="189.50504"
       sodipodi:rx="14.285714"
       sodipodi:ry="14.285714"
       d="m 157.14286,189.50504 c 0,7.88978 -6.39593,14.28571 -14.28571,14.28571 -7.88978,0 -14.28572,-6.39593 -14.28572,-14.28571 0,-7.88979 6.39594,-14.28572 14.28572,-14.28572 7.88978,0 14.28571,6.39593 14.28571,14.28572 z"
       transform="matrix(0.43431457,0,0,0.43431457,127.95506,131.26188)" />
    <path
       sodipodi:type="arc"
       style="fill:#808080;stroke-width:1.5;stroke-linecap:round;stroke-linejoin:miter;stroke-miterlimit:4;stroke-dasharray:none"
       id="path2985-3-9-7"
       sodipodi:cx="142.85715"
       sodipodi:cy="189.50504"
       sodipodi:rx="14.285714"
       sodipodi:ry="14.285714"
       d="m 157.14286,189.50504 c 0,7.88978 -6.39593,14.28571 -14.28571,14.28571 -7.88978,0 -14.28572,-6.39593 -14.28572,-14.28571 0,-7.88979 6.39594,-14.28572 14.28572,-14.28572 7.88978,0 14.28571,6.39593 14.28571,14.28572 z"
       transform="matrix(0.43431457,0,0,0.43431457,217.95506,131.26188)" />
    <path
       sodipodi:type="arc"
       style="fill:#000000;stroke-width:1.5;stroke-linecap:round;stroke-linejoin:miter;stroke-miterlimit:4;stroke-dasharray:none"
       id="path2985-11"
       sodipodi:cx="142.85715"
       sodipodi:cy="189.50504"
       sodipodi:rx="14.285714"
       sodipodi:ry="14.285714"
       d="m 157.14286,189.50504 c 0,7.88978 -6.39593,14.28571 -14.28571,14.28571 -7.88978,0 -14.28572,-6.39593 -14.28572,-14.28571 0,-7.88979 6.39594,-14.28572 14.28572,-14.28572 7.88978,0 14.28571,6.39593 14.28571,14.28572 z"
       transform="matrix(0.70000004,0,0,0.70000004,89.999992,80.913146)" />
    <path
       sodipodi:type="arc"
       style="fill:#808080;stroke-width:1.5;stroke-linecap:round;stroke-linejoin:miter;stroke-miterlimit:4;stroke-dasharray:none"
       id="path2985-1-4"
       sodipodi:cx="142.85715"
       sodipodi:cy="189.50504"
       sodipodi:rx="14.285714"
       sodipodi:ry="14.285714"
       d="m 157.14286,189.50504 c 0,7.88978 -6.39593,14.28571 -14.28571,14.28571 -7.88978,0 -14.28572,-6.39593 -14.28572,-14.28571 0,-7.88979 6.39594,-14.28572 14.28572,-14.28572 7.88978,0 14.28571,6.39593 14.28571,14.28572 z"
       transform="matrix(0.43431457,0,0,0.43431457,217.95506,131.26188)" />
    <path
       sodipodi:type="arc"
       style="fill:#808080;stroke-width:1.5;stroke-linecap:round;stroke-linejoin:miter;stroke-miterlimit:4;stroke-dasharray:none"
       id="path2985-3-1"
       sodipodi:cx="142.85715"
       sodipodi:cy="189.50504"
       sodipodi:rx="14.285714"
       sodipodi:ry="14.285714"
       d="m 157.14286,189.50504 c 0,7.88978 -6.39593,14.28571 -14.28571,14.28571 -7.88978,0 -14.28572,-6.39593 -14.28572,-14.28571 0,-7.88979 6.39594,-14.28572 14.28572,-14.28572 7.88978,0 14.28571,6.39593 14.28571,14.28572 z"
       transform="matrix(0.43431457,0,0,0.43431457,127.95506,206.26188)" />
    <path
       sodipodi:type="arc"
       style="fill:#808080;stroke-width:1.5;stroke-linecap:round;stroke-linejoin:miter;stroke-miterlimit:4;stroke-dasharray:none"
       id="path2985-3-9-2"
       sodipodi:cx="142.85715"
       sodipodi:cy="189.50504"
       sodipodi:rx="14.285714"
       sodipodi:ry="14.285714"
       d="m 157.14286,189.50504 c 0,7.88978 -6.39593,14.28571 -14.28571,14.28571 -7.88978,0 -14.28572,-6.39593 -14.28572,-14.28571 0,-7.88979 6.39594,-14.28572 14.28572,-14.28572 7.88978,0 14.28571,6.39593 14.28571,14.28572 z"
       transform="matrix(0.43431457,0,0,0.43431457,217.95506,206.26188)" />
    <path
       sodipodi:type="arc"
       style="fill:#808080;stroke-width:1.5;stroke-linecap:round;stroke-linejoin:miter;stroke-miterlimit:4;stroke-dasharray:none"
       id="path2985-3-53"
       sodipodi:cx="142.85715"
       sodipodi:cy="189.50504"
       sodipodi:rx="14.285714"
       sodipodi:ry="14.285714"
       d="m 157.14286,189.50504 c 0,7.88978 -6.39593,14.28571 -14.28571,14.28571 -7.88978,0 -14.28572,-6.39593 -14.28572,-14.28571 0,-7.88979 6.39594,-14.28572 14.28572,-14.28572 7.88978,0 14.28571,6.39593 14.28571,14.28572 z"
       transform="matrix(0.43431457,0,0,0.43431457,37.95506,-18.738122)" />
    <path
       sodipodi:type="arc"
       style="fill:#808080;stroke-width:1.5;stroke-linecap:round;stroke-linejoin:miter;stroke-miterlimit:4;stroke-dasharray:none"
       id="path2985-3-9-0"
       sodipodi:cx="142.85715"
       sodipodi:cy="189.50504"
       sodipodi:rx="14.285714"
       sodipodi:ry="14.285714"
       d="m 157.14286,189.50504 c 0,7.88978 -6.39593,14.28571 -14.28571,14.28571 -7.88978,0 -14.28572,-6.39593 -14.28572,-14.28571 0,-7.88979 6.39594,-14.28572 14.28572,-14.28572 7.88978,0 14.28571,6.39593 14.28571,14.28572 z"
       transform="matrix(0.43431457,0,0,0.43431457,127.95506,-18.738122)" />
    <path
       sodipodi:type="arc"
       style="fill:#808080;stroke-width:1.5;stroke-linecap:round;stroke-linejoin:miter;stroke-miterlimit:4;stroke-dasharray:none"
       id="path2985-0-6"
       sodipodi:cx="142.85715"
       sodipodi:cy="189.50504"
       sodipodi:rx="14.285714"
       sodipodi:ry="14.285714"
       d="m 157.14286,189.50504 c 0,7.88978 -6.39593,14.28571 -14.28571,14.28571 -7.88978,0 -14.28572,-6.39593 -14.28572,-14.28571 0,-7.88979 6.39594,-14.28572 14.28572,-14.28572 7.88978,0 14.28571,6.39593 14.28571,14.28572 z"
       transform="matrix(0.43431457,0,0,0.43431457,37.95506,-18.738122)" />
    <path
       sodipodi:type="arc"
       style="fill:#808080;stroke-width:1.5;stroke-linecap:round;stroke-linejoin:miter;stroke-miterlimit:4;stroke-dasharray:none"
       id="path2985-1-6-2"
       sodipodi:cx="142.85715"
       sodipodi:cy="189.50504"
       sodipodi:rx="14.285714"
       sodipodi:ry="14.285714"
       d="m 157.14286,189.50504 c 0,7.88978 -6.39593,14.28571 -14.28571,14.28571 -7.88978,0 -14.28572,-6.39593 -14.28572,-14.28571 0,-7.88979 6.39594,-14.28572 14.28572,-14.28572 7.88978,0 14.28571,6.39593 14.28571,14.28572 z"
       transform="matrix(0.43431457,0,0,0.43431457,127.95506,-18.738122)" />
    <path
       sodipodi:type="arc"
       style="fill:#808080;stroke-width:1.5;stroke-linecap:round;stroke-linejoin:miter;stroke-miterlimit:4;stroke-dasharray:none"
       id="path2985-3-0-7"
       sodipodi:cx="142.85715"
       sodipodi:cy="189.50504"
       sodipodi:rx="14.285714"
       sodipodi:ry="14.285714"
       d="m 157.14286,189.50504 c 0,7.88978 -6.39593,14.28571 -14.28571,14.28571 -7.88978,0 -14.28572,-6.39593 -14.28572,-14.28571 0,-7.88979 6.39594,-14.28572 14.28572,-14.28572 7.88978,0 14.28571,6.39593 14.28571,14.28572 z"
       transform="matrix(0.43431457,0,0,0.43431457,37.95506,56.261878)" />
    <path
       sodipodi:type="arc"
       style="fill:#808080;stroke-width:1.5;stroke-linecap:round;stroke-linejoin:miter;stroke-miterlimit:4;stroke-dasharray:none"
       id="path2985-3-9-4-7"
       sodipodi:cx="142.85715"
       sodipodi:cy="189.50504"
       sodipodi:rx="14.285714"
       sodipodi:ry="14.285714"
       d="m 157.14286,189.50504 c 0,7.88978 -6.39593,14.28571 -14.28571,14.28571 -7.88978,0 -14.28572,-6.39593 -14.28572,-14.28571 0,-7.88979 6.39594,-14.28572 14.28572,-14.28572 7.88978,0 14.28571,6.39593 14.28571,14.28572 z"
       transform="matrix(0.43431457,0,0,0.43431457,127.95506,56.261878)" />
    <path
       sodipodi:type="arc"
       style="fill:#808080;stroke-width:1.5;stroke-linecap:round;stroke-linejoin:miter;stroke-miterlimit:4;stroke-dasharray:none"
       id="path2985-3-5-1"
       sodipodi:cx="142.85715"
       sodipodi:cy="189.50504"
       sodipodi:rx="14.285714"
       sodipodi:ry="14.285714"
       d="m 157.14286,189.50504 c 0,7.88978 -6.39593,14.28571 -14.28571,14.28571 -7.88978,0 -14.28572,-6.39593 -14.28572,-14.28571 0,-7.88979 6.39594,-14.28572 14.28572,-14.28572 7.88978,0 14.28571,6.39593 14.28571,14.28572 z"
       transform="matrix(0.43431457,0,0,0.43431457,127.95506,-18.738122)" />
    <path
       sodipodi:type="arc"
       style="fill:#808080;stroke-width:1.5;stroke-linecap:round;stroke-linejoin:miter;stroke-miterlimit:4;stroke-dasharray:none"
       id="path2985-3-9-7-5"
       sodipodi:cx="142.85715"
       sodipodi:cy="189.50504"
       sodipodi:rx="14.285714"
       sodipodi:ry="14.285714"
       d="m 157.14286,189.50504 c 0,7.88978 -6.39593,14.28571 -14.28571,14.28571 -7.88978,0 -14.28572,-6.39593 -14.28572,-14.28571 0,-7.88979 6.39594,-14.28572 14.28572,-14.28572 7.88978,0 14.28571,6.39593 14.28571,14.28572 z"
       transform="matrix(0.43431457,0,0,0.43431457,217.95506,-18.738122)" />
    <path
       sodipodi:type="arc"
       style="fill:#808080;stroke-width:1.5;stroke-linecap:round;stroke-linejoin:miter;stroke-miterlimit:4;stroke-dasharray:none"
       id="path2985-11-2"
       sodipodi:cx="142.85715"
       sodipodi:cy="189.50504"
       sodipodi:rx="14.285714"
       sodipodi:ry="14.285714"
       d="m 157.14286,189.50504 c 0,7.88978 -6.39593,14.28571 -14.28571,14.28571 -7.88978,0 -14.28572,-6.39593 -14.28572,-14.28571 0,-7.88979 6.39594,-14.28572 14.28572,-14.28572 7.88978,0 14.28571,6.39593 14.28571,14.28572 z"
       transform="matrix(0.43431457,0,0,0.43431457,127.95506,-18.738122)" />
    <path
       sodipodi:type="arc"
       style="fill:#808080;stroke-width:1.5;stroke-linecap:round;stroke-linejoin:miter;stroke-miterlimit:4;stroke-dasharray:none"
       id="path2985-1-4-0"
       sodipodi:cx="142.85715"
       sodipodi:cy="189.50504"
       sodipodi:rx="14.285714"
       sodipodi:ry="14.285714"
       d="m 157.14286,189.50504 c 0,7.88978 -6.39593,14.28571 -14.28571,14.28571 -7.88978,0 -14.28572,-6.39593 -14.28572,-14.28571 0,-7.88979 6.39594,-14.28572 14.28572,-14.28572 7.88978,0 14.28571,6.39593 14.28571,14.28572 z"
       transform="matrix(0.43431457,0,0,0.43431457,217.95506,-18.738122)" />
    <path
       sodipodi:type="arc"
       style="fill:#808080;stroke-width:1.5;stroke-linecap:round;stroke-linejoin:miter;stroke-miterlimit:4;stroke-dasharray:none"
       id="path2985-3-1-9"
       sodipodi:cx="142.85715"
       sodipodi:cy="189.50504"
       sodipodi:rx="14.285714"
       sodipodi:ry="14.285714"
       d="m 157.14286,189.50504 c 0,7.88978 -6.39593,14.28571 -14.28571,14.28571 -7.88978,0 -14.28572,-6.39593 -14.28572,-14.28571 0,-7.88979 6.39594,-14.28572 14.28572,-14.28572 7.88978,0 14.28571,6.39593 14.28571,14.28572 z"
       transform="matrix(0.43431457,0,0,0.43431457,127.95506,56.261878)" />
    <path
       sodipodi:type="arc"
       style="fill:#808080;stroke-width:1.5;stroke-linecap:round;stroke-linejoin:miter;stroke-miterlimit:4;stroke-dasharray:none"
       id="path2985-3-9-2-0"
       sodipodi:cx="142.85715"
       sodipodi:cy="189.50504"
       sodipodi:rx="14.285714"
       sodipodi:ry="14.285714"
       d="m 157.14286,189.50504 c 0,7.88978 -6.39593,14.28571 -14.28571,14.28571 -7.88978,0 -14.28572,-6.39593 -14.28572,-14.28571 0,-7.88979 6.39594,-14.28572 14.28572,-14.28572 7.88978,0 14.28571,6.39593 14.28571,14.28572 z"
       transform="matrix(0.43431457,0,0,0.43431457,217.95506,56.261878)" />
    <path
       sodipodi:type="arc"
       style="fill:#808080;stroke-width:1.5;stroke-linecap:round;stroke-linejoin:miter;stroke-miterlimit:4;stroke-dasharray:none"
       id="path2985-3-7"
       sodipodi:cx="142.85715"
       sodipodi:cy="189.50504"
       sodipodi:rx="14.285714"
       sodipodi:ry="14.285714"
       d="m 157.14286,189.50504 c 0,7.88978 -6.39593,14.28571 -14.28571,14.28571 -7.88978,0 -14.28572,-6.39593 -14.28572,-14.28571 0,-7.88979 6.39594,-14.28572 14.28572,-14.28572 7.88978,0 14.28571,6.39593 14.28571,14.28572 z"
       transform="matrix(0.43431457,0,0,0.43431457,37.95506,206.26188)" />
    <path
       sodipodi:type="arc"
       style="fill:#808080;stroke-width:1.5;stroke-linecap:round;stroke-linejoin:miter;stroke-miterlimit:4;stroke-dasharray:none"
       id="path2985-3-9-8"
       sodipodi:cx="142.85715"
       sodipodi:cy="189.50504"
       sodipodi:rx="14.285714"
       sodipodi:ry="14.285714"
       d="m 157.14286,189.50504 c 0,7.88978 -6.39593,14.28571 -14.28571,14.28571 -7.88978,0 -14.28572,-6.39593 -14.28572,-14.28571 0,-7.88979 6.39594,-14.28572 14.28572,-14.28572 7.88978,0 14.28571,6.39593 14.28571,14.28572 z"
       transform="matrix(0.43431457,0,0,0.43431457,127.95506,206.26188)" />
    <path
       sodipodi:type="arc"
       style="fill:#808080;stroke-width:1.5;stroke-linecap:round;stroke-linejoin:miter;stroke-miterlimit:4;stroke-dasharray:none"
       id="path2985-0-4"
       sodipodi:cx="142.85715"
       sodipodi:cy="189.50504"
       sodipodi:rx="14.285714"
       sodipodi:ry="14.285714"
       d="m 157.14286,189.50504 c 0,7.88978 -6.39593,14.28571 -14.28571,14.28571 -7.88978,0 -14.28572,-6.39593 -14.28572,-14.28571 0,-7.88979 6.39594,-14.28572 14.28572,-14.28572 7.88978,0 14.28571,6.39593 14.28571,14.28572 z"
       transform="matrix(0.43431457,0,0,0.43431457,37.95506,206.26188)" />
    <path
       sodipodi:type="arc"
       style="fill:#808080;stroke-width:1.5;stroke-linecap:round;stroke-linejoin:miter;stroke-miterlimit:4;stroke-dasharray:none"
       id="path2985-1-6-8"
       sodipodi:cx="142.85715"
       sodipodi:cy="189.50504"
       sodipodi:rx="14.285714"
       sodipodi:ry="14.285714"
       d="m 157.14286,189.50504 c 0,7.88978 -6.39593,14.28571 -14.28571,14.28571 -7.88978,0 -14.28572,-6.39593 -14.28572,-14.28571 0,-7.88979 6.39594,-14.28572 14.28572,-14.28572 7.88978,0 14.28571,6.39593 14.28571,14.28572 z"
       transform="matrix(0.43431457,0,0,0.43431457,127.95506,206.26188)" />
    <path
       sodipodi:type="arc"
       style="fill:#808080;stroke-width:1.5;stroke-linecap:round;stroke-linejoin:miter;stroke-miterlimit:4;stroke-dasharray:none"
       id="path2985-3-0-5"
       sodipodi:cx="142.85715"
       sodipodi:cy="189.50504"
       sodipodi:rx="14.285714"
       sodipodi:ry="14.285714"
       d="m 157.14286,189.50504 c 0,7.88978 -6.39593,14.28571 -14.28571,14.28571 -7.88978,0 -14.28572,-6.39593 -14.28572,-14.28571 0,-7.88979 6.39594,-14.28572 14.28572,-14.28572 7.88978,0 14.28571,6.39593 14.28571,14.28572 z"
       transform="matrix(0.43431457,0,0,0.43431457,37.95506,281.26189)" />
    <path
       sodipodi:type="arc"
       style="fill:#808080;stroke-width:1.5;stroke-linecap:round;stroke-linejoin:miter;stroke-miterlimit:4;stroke-dasharray:none"
       id="path2985-3-9-4-6"
       sodipodi:cx="142.85715"
       sodipodi:cy="189.50504"
       sodipodi:rx="14.285714"
       sodipodi:ry="14.285714"
       d="m 157.14286,189.50504 c 0,7.88978 -6.39593,14.28571 -14.28571,14.28571 -7.88978,0 -14.28572,-6.39593 -14.28572,-14.28571 0,-7.88979 6.39594,-14.28572 14.28572,-14.28572 7.88978,0 14.28571,6.39593 14.28571,14.28572 z"
       transform="matrix(0.43431457,0,0,0.43431457,127.95506,281.26189)" />
    <path
       sodipodi:type="arc"
       style="fill:#808080;stroke-width:1.5;stroke-linecap:round;stroke-linejoin:miter;stroke-miterlimit:4;stroke-dasharray:none"
       id="path2985-3-5-15"
       sodipodi:cx="142.85715"
       sodipodi:cy="189.50504"
       sodipodi:rx="14.285714"
       sodipodi:ry="14.285714"
       d="m 157.14286,189.50504 c 0,7.88978 -6.39593,14.28571 -14.28571,14.28571 -7.88978,0 -14.28572,-6.39593 -14.28572,-14.28571 0,-7.88979 6.39594,-14.28572 14.28572,-14.28572 7.88978,0 14.28571,6.39593 14.28571,14.28572 z"
       transform="matrix(0.43431457,0,0,0.43431457,127.95506,206.26188)" />
    <path
       sodipodi:type="arc"
       style="fill:#808080;stroke-width:1.5;stroke-linecap:round;stroke-linejoin:miter;stroke-miterlimit:4;stroke-dasharray:none"
       id="path2985-3-9-7-6"
       sodipodi:cx="142.85715"
       sodipodi:cy="189.50504"
       sodipodi:rx="14.285714"
       sodipodi:ry="14.285714"
       d="m 157.14286,189.50504 c 0,7.88978 -6.39593,14.28571 -14.28571,14.28571 -7.88978,0 -14.28572,-6.39593 -14.28572,-14.28571 0,-7.88979 6.39594,-14.28572 14.28572,-14.28572 7.88978,0 14.28571,6.39593 14.28571,14.28572 z"
       transform="matrix(0.43431457,0,0,0.43431457,217.95505,206.26188)" />
    <path
       sodipodi:type="arc"
       style="fill:#808080;stroke-width:1.5;stroke-linecap:round;stroke-linejoin:miter;stroke-miterlimit:4;stroke-dasharray:none"
       id="path2985-11-1"
       sodipodi:cx="142.85715"
       sodipodi:cy="189.50504"
       sodipodi:rx="14.285714"
       sodipodi:ry="14.285714"
       d="m 157.14286,189.50504 c 0,7.88978 -6.39593,14.28571 -14.28571,14.28571 -7.88978,0 -14.28572,-6.39593 -14.28572,-14.28571 0,-7.88979 6.39594,-14.28572 14.28572,-14.28572 7.88978,0 14.28571,6.39593 14.28571,14.28572 z"
       transform="matrix(0.43431457,0,0,0.43431457,127.95506,206.26188)" />
    <path
       sodipodi:type="arc"
       style="fill:#808080;stroke-width:1.5;stroke-linecap:round;stroke-linejoin:miter;stroke-miterlimit:4;stroke-dasharray:none"
       id="path2985-1-4-6"
       sodipodi:cx="142.85715"
       sodipodi:cy="189.50504"
       sodipodi:rx="14.285714"
       sodipodi:ry="14.285714"
       d="m 157.14286,189.50504 c 0,7.88978 -6.39593,14.28571 -14.28571,14.28571 -7.88978,0 -14.28572,-6.39593 -14.28572,-14.28571 0,-7.88979 6.39594,-14.28572 14.28572,-14.28572 7.88978,0 14.28571,6.39593 14.28571,14.28572 z"
       transform="matrix(0.43431457,0,0,0.43431457,217.95505,206.26188)" />
    <path
       sodipodi:type="arc"
       style="fill:#808080;stroke-width:1.5;stroke-linecap:round;stroke-linejoin:miter;stroke-miterlimit:4;stroke-dasharray:none"
       id="path2985-3-1-0"
       sodipodi:cx="142.85715"
       sodipodi:cy="189.50504"
       sodipodi:rx="14.285714"
       sodipodi:ry="14.285714"
       d="m 157.14286,189.50504 c 0,7.88978 -6.39593,14.28571 -14.28571,14.28571 -7.88978,0 -14.28572,-6.39593 -14.28572,-14.28571 0,-7.88979 6.39594,-14.28572 14.28572,-14.28572 7.88978,0 14.28571,6.39593 14.28571,14.28572 z"
       transform="matrix(0.43431457,0,0,0.43431457,127.95506,281.26189)" />
    <path
       sodipodi:type="arc"
       style="fill:#808080;stroke-width:1.5;stroke-linecap:round;stroke-linejoin:miter;stroke-miterlimit:4;stroke-dasharray:none"
       id="path2985-3-9-2-7"
       sodipodi:cx="142.85715"
       sodipodi:cy="189.50504"
       sodipodi:rx="14.285714"
       sodipodi:ry="14.285714"
       d="m 157.14286,189.50504 c 0,7.88978 -6.39593,14.28571 -14.28571,14.28571 -7.88978,0 -14.28572,-6.39593 -14.28572,-14.28571 0,-7.88979 6.39594,-14.28572 14.28572,-14.28572 7.88978,0 14.28571,6.39593 14.28571,14.28572 z"
       transform="matrix(0.43431457,0,0,0.43431457,217.95505,281.26189)" />
    <path
       sodipodi:type="arc"
       style="fill:#808080;stroke-width:1.5;stroke-linecap:round;stroke-linejoin:miter;stroke-miterlimit:4;stroke-dasharray:none"
       id="path2985-1-7"
       sodipodi:cx="142.85715"
       sodipodi:cy="189.50504"
       sodipodi:rx="14.285714"
       sodipodi:ry="14.285714"
       d="m 157.14286,189.50504 c 0,7.88978 -6.39593,14.28571 -14.28571,14.28571 -7.88978,0 -14.28572,-6.39593 -14.28572,-14.28571 0,-7.88979 6.39594,-14.28572 14.28572,-14.28572 7.88978,0 14.28571,6.39593 14.28571,14.28572 z"
       transform="matrix(0.43431457,0,0,0.43431457,-52.044943,56.261877)" />
    <path
       sodipodi:type="arc"
       style="fill:#808080;stroke-width:1.5;stroke-linecap:round;stroke-linejoin:miter;stroke-miterlimit:4;stroke-dasharray:none"
       id="path2985-3-9-5"
       sodipodi:cx="142.85715"
       sodipodi:cy="189.50504"
       sodipodi:rx="14.285714"
       sodipodi:ry="14.285714"
       d="m 157.14286,189.50504 c 0,7.88978 -6.39593,14.28571 -14.28571,14.28571 -7.88978,0 -14.28572,-6.39593 -14.28572,-14.28571 0,-7.88979 6.39594,-14.28572 14.28572,-14.28572 7.88978,0 14.28571,6.39593 14.28571,14.28572 z"
       transform="matrix(0.43431457,0,0,0.43431457,-52.044943,131.26188)" />
    <path
       sodipodi:type="arc"
       style="fill:#808080;stroke-width:1.5;stroke-linecap:round;stroke-linejoin:miter;stroke-miterlimit:4;stroke-dasharray:none"
       id="path2985-1-6-9"
       sodipodi:cx="142.85715"
       sodipodi:cy="189.50504"
       sodipodi:rx="14.285714"
       sodipodi:ry="14.285714"
       d="m 157.14286,189.50504 c 0,7.88978 -6.39593,14.28571 -14.28571,14.28571 -7.88978,0 -14.28572,-6.39593 -14.28572,-14.28571 0,-7.88979 6.39594,-14.28572 14.28572,-14.28572 7.88978,0 14.28571,6.39593 14.28571,14.28572 z"
       transform="matrix(0.43431457,0,0,0.43431457,-52.044943,131.26188)" />
    <path
       sodipodi:type="arc"
       style="fill:#808080;stroke-width:1.5;stroke-linecap:round;stroke-linejoin:miter;stroke-miterlimit:4;stroke-dasharray:none"
       id="path2985-3-9-4-0"
       sodipodi:cx="142.85715"
       sodipodi:cy="189.50504"
       sodipodi:rx="14.285714"
       sodipodi:ry="14.285714"
       d="m 157.14286,189.50504 c 0,7.88978 -6.39593,14.28571 -14.28571,14.28571 -7.88978,0 -14.28572,-6.39593 -14.28572,-14.28571 0,-7.88979 6.39594,-14.28572 14.28572,-14.28572 7.88978,0 14.28571,6.39593 14.28571,14.28572 z"
       transform="matrix(0.43431457,0,0,0.43431457,-52.044943,206.26188)" />
    <path
       sodipodi:type="arc"
       style="fill:#808080;stroke-width:1.5;stroke-linecap:round;stroke-linejoin:miter;stroke-miterlimit:4;stroke-dasharray:none"
       id="path2985-5-4"
       sodipodi:cx="142.85715"
       sodipodi:cy="189.50504"
       sodipodi:rx="14.285714"
       sodipodi:ry="14.285714"
       d="m 157.14286,189.50504 c 0,7.88978 -6.39593,14.28571 -14.28571,14.28571 -7.88978,0 -14.28572,-6.39593 -14.28572,-14.28571 0,-7.88979 6.39594,-14.28572 14.28572,-14.28572 7.88978,0 14.28571,6.39593 14.28571,14.28572 z"
       transform="matrix(0.43431457,0,0,0.43431457,-52.044943,56.261877)" />
    <path
       sodipodi:type="arc"
       style="fill:#808080;stroke-width:1.5;stroke-linecap:round;stroke-linejoin:miter;stroke-miterlimit:4;stroke-dasharray:none"
       id="path2985-1-3-7"
       sodipodi:cx="142.85715"
       sodipodi:cy="189.50504"
       sodipodi:rx="14.285714"
       sodipodi:ry="14.285714"
       d="m 157.14286,189.50504 c 0,7.88978 -6.39593,14.28571 -14.28571,14.28571 -7.88978,0 -14.28572,-6.39593 -14.28572,-14.28571 0,-7.88979 6.39594,-14.28572 14.28572,-14.28572 7.88978,0 14.28571,6.39593 14.28571,14.28572 z"
       transform="matrix(0.43431457,0,0,0.43431457,37.95506,56.261877)" />
    <path
       sodipodi:type="arc"
       style="fill:#808080;stroke-width:1.5;stroke-linecap:round;stroke-linejoin:miter;stroke-miterlimit:4;stroke-dasharray:none"
       id="path2985-3-5-8"
       sodipodi:cx="142.85715"
       sodipodi:cy="189.50504"
       sodipodi:rx="14.285714"
       sodipodi:ry="14.285714"
       d="m 157.14286,189.50504 c 0,7.88978 -6.39593,14.28571 -14.28571,14.28571 -7.88978,0 -14.28572,-6.39593 -14.28572,-14.28571 0,-7.88979 6.39594,-14.28572 14.28572,-14.28572 7.88978,0 14.28571,6.39593 14.28571,14.28572 z"
       transform="matrix(0.43431457,0,0,0.43431457,-52.044943,131.26188)" />
    <path
       sodipodi:type="arc"
       style="fill:#808080;stroke-width:1.5;stroke-linecap:round;stroke-linejoin:miter;stroke-miterlimit:4;stroke-dasharray:none"
       id="path2985-3-9-7-0"
       sodipodi:cx="142.85715"
       sodipodi:cy="189.50504"
       sodipodi:rx="14.285714"
       sodipodi:ry="14.285714"
       d="m 157.14286,189.50504 c 0,7.88978 -6.39593,14.28571 -14.28571,14.28571 -7.88978,0 -14.28572,-6.39593 -14.28572,-14.28571 0,-7.88979 6.39594,-14.28572 14.28572,-14.28572 7.88978,0 14.28571,6.39593 14.28571,14.28572 z"
       transform="matrix(0.43431457,0,0,0.43431457,37.95506,131.26188)" />
    <path
       sodipodi:type="arc"
       style="fill:#808080;stroke-width:1.5;stroke-linecap:round;stroke-linejoin:miter;stroke-miterlimit:4;stroke-dasharray:none"
       id="path2985-11-3"
       sodipodi:cx="142.85715"
       sodipodi:cy="189.50504"
       sodipodi:rx="14.285714"
       sodipodi:ry="14.285714"
       d="m 157.14286,189.50504 c 0,7.88978 -6.39593,14.28571 -14.28571,14.28571 -7.88978,0 -14.28572,-6.39593 -14.28572,-14.28571 0,-7.88979 6.39594,-14.28572 14.28572,-14.28572 7.88978,0 14.28571,6.39593 14.28571,14.28572 z"
       transform="matrix(0.43431457,0,0,0.43431457,-52.044943,131.26188)" />
    <path
       sodipodi:type="arc"
       style="fill:#808080;stroke-width:1.5;stroke-linecap:round;stroke-linejoin:miter;stroke-miterlimit:4;stroke-dasharray:none"
       id="path2985-1-4-7"
       sodipodi:cx="142.85715"
       sodipodi:cy="189.50504"
       sodipodi:rx="14.285714"
       sodipodi:ry="14.285714"
       d="m 157.14286,189.50504 c 0,7.88978 -6.39593,14.28571 -14.28571,14.28571 -7.88978,0 -14.28572,-6.39593 -14.28572,-14.28571 0,-7.88979 6.39594,-14.28572 14.28572,-14.28572 7.88978,0 14.28571,6.39593 14.28571,14.28572 z"
       transform="matrix(0.43431457,0,0,0.43431457,37.95506,131.26188)" />
    <path
       sodipodi:type="arc"
       style="fill:#808080;stroke-width:1.5;stroke-linecap:round;stroke-linejoin:miter;stroke-miterlimit:4;stroke-dasharray:none"
       id="path2985-3-1-96"
       sodipodi:cx="142.85715"
       sodipodi:cy="189.50504"
       sodipodi:rx="14.285714"
       sodipodi:ry="14.285714"
       d="m 157.14286,189.50504 c 0,7.88978 -6.39593,14.28571 -14.28571,14.28571 -7.88978,0 -14.28572,-6.39593 -14.28572,-14.28571 0,-7.88979 6.39594,-14.28572 14.28572,-14.28572 7.88978,0 14.28571,6.39593 14.28571,14.28572 z"
       transform="matrix(0.43431457,0,0,0.43431457,-52.044943,206.26188)" />
    <path
       sodipodi:type="arc"
       style="fill:#808080;stroke-width:1.5;stroke-linecap:round;stroke-linejoin:miter;stroke-miterlimit:4;stroke-dasharray:none"
       id="path2985-3-9-2-9"
       sodipodi:cx="142.85715"
       sodipodi:cy="189.50504"
       sodipodi:rx="14.285714"
       sodipodi:ry="14.285714"
       d="m 157.14286,189.50504 c 0,7.88978 -6.39593,14.28571 -14.28571,14.28571 -7.88978,0 -14.28572,-6.39593 -14.28572,-14.28571 0,-7.88979 6.39594,-14.28572 14.28572,-14.28572 7.88978,0 14.28571,6.39593 14.28571,14.28572 z"
       transform="matrix(0.43431457,0,0,0.43431457,37.95506,206.26188)" />
    <path
       sodipodi:type="arc"
       style="fill:#808080;stroke-width:1.5;stroke-linecap:round;stroke-linejoin:miter;stroke-miterlimit:4;stroke-dasharray:none"
       id="path2985-3-9-0-8"
       sodipodi:cx="142.85715"
       sodipodi:cy="189.50504"
       sodipodi:rx="14.285714"
       sodipodi:ry="14.285714"
       d="m 157.14286,189.50504 c 0,7.88978 -6.39593,14.28571 -14.28571,14.28571 -7.88978,0 -14.28572,-6.39593 -14.28572,-14.28571 0,-7.88979 6.39594,-14.28572 14.28572,-14.28572 7.88978,0 14.28571,6.39593 14.28571,14.28572 z"
       transform="matrix(0.43431457,0,0,0.43431457,-52.044943,-18.738122)" />
    <path
       sodipodi:type="arc"
       style="fill:#808080;stroke-width:1.5;stroke-linecap:round;stroke-linejoin:miter;stroke-miterlimit:4;stroke-dasharray:none"
       id="path2985-1-6-2-7"
       sodipodi:cx="142.85715"
       sodipodi:cy="189.50504"
       sodipodi:rx="14.285714"
       sodipodi:ry="14.285714"
       d="m 157.14286,189.50504 c 0,7.88978 -6.39593,14.28571 -14.28571,14.28571 -7.88978,0 -14.28572,-6.39593 -14.28572,-14.28571 0,-7.88979 6.39594,-14.28572 14.28572,-14.28572 7.88978,0 14.28571,6.39593 14.28571,14.28572 z"
       transform="matrix(0.43431457,0,0,0.43431457,-52.044943,-18.738122)" />
    <path
       sodipodi:type="arc"
       style="fill:#808080;stroke-width:1.5;stroke-linecap:round;stroke-linejoin:miter;stroke-miterlimit:4;stroke-dasharray:none"
       id="path2985-3-9-4-7-4"
       sodipodi:cx="142.85715"
       sodipodi:cy="189.50504"
       sodipodi:rx="14.285714"
       sodipodi:ry="14.285714"
       d="m 157.14286,189.50504 c 0,7.88978 -6.39593,14.28571 -14.28571,14.28571 -7.88978,0 -14.28572,-6.39593 -14.28572,-14.28571 0,-7.88979 6.39594,-14.28572 14.28572,-14.28572 7.88978,0 14.28571,6.39593 14.28571,14.28572 z"
       transform="matrix(0.43431457,0,0,0.43431457,-52.044943,56.261877)" />
    <path
       sodipodi:type="arc"
       style="fill:#808080;stroke-width:1.5;stroke-linecap:round;stroke-linejoin:miter;stroke-miterlimit:4;stroke-dasharray:none"
       id="path2985-3-5-1-2"
       sodipodi:cx="142.85715"
       sodipodi:cy="189.50504"
       sodipodi:rx="14.285714"
       sodipodi:ry="14.285714"
       d="m 157.14286,189.50504 c 0,7.88978 -6.39593,14.28571 -14.28571,14.28571 -7.88978,0 -14.28572,-6.39593 -14.28572,-14.28571 0,-7.88979 6.39594,-14.28572 14.28572,-14.28572 7.88978,0 14.28571,6.39593 14.28571,14.28572 z"
       transform="matrix(0.43431457,0,0,0.43431457,-52.044943,-18.738122)" />
    <path
       sodipodi:type="arc"
       style="fill:#808080;stroke-width:1.5;stroke-linecap:round;stroke-linejoin:miter;stroke-miterlimit:4;stroke-dasharray:none"
       id="path2985-3-9-7-5-4"
       sodipodi:cx="142.85715"
       sodipodi:cy="189.50504"
       sodipodi:rx="14.285714"
       sodipodi:ry="14.285714"
       d="m 157.14286,189.50504 c 0,7.88978 -6.39593,14.28571 -14.28571,14.28571 -7.88978,0 -14.28572,-6.39593 -14.28572,-14.28571 0,-7.88979 6.39594,-14.28572 14.28572,-14.28572 7.88978,0 14.28571,6.39593 14.28571,14.28572 z"
       transform="matrix(0.43431457,0,0,0.43431457,37.95506,-18.738122)" />
    <path
       sodipodi:type="arc"
       style="fill:#808080;stroke-width:1.5;stroke-linecap:round;stroke-linejoin:miter;stroke-miterlimit:4;stroke-dasharray:none"
       id="path2985-11-2-4"
       sodipodi:cx="142.85715"
       sodipodi:cy="189.50504"
       sodipodi:rx="14.285714"
       sodipodi:ry="14.285714"
       d="m 157.14286,189.50504 c 0,7.88978 -6.39593,14.28571 -14.28571,14.28571 -7.88978,0 -14.28572,-6.39593 -14.28572,-14.28571 0,-7.88979 6.39594,-14.28572 14.28572,-14.28572 7.88978,0 14.28571,6.39593 14.28571,14.28572 z"
       transform="matrix(0.43431457,0,0,0.43431457,-52.044943,-18.738122)" />
    <path
       sodipodi:type="arc"
       style="fill:#808080;stroke-width:1.5;stroke-linecap:round;stroke-linejoin:miter;stroke-miterlimit:4;stroke-dasharray:none"
       id="path2985-1-4-0-2"
       sodipodi:cx="142.85715"
       sodipodi:cy="189.50504"
       sodipodi:rx="14.285714"
       sodipodi:ry="14.285714"
       d="m 157.14286,189.50504 c 0,7.88978 -6.39593,14.28571 -14.28571,14.28571 -7.88978,0 -14.28572,-6.39593 -14.28572,-14.28571 0,-7.88979 6.39594,-14.28572 14.28572,-14.28572 7.88978,0 14.28571,6.39593 14.28571,14.28572 z"
       transform="matrix(0.43431457,0,0,0.43431457,37.95506,-18.738122)" />
    <path
       sodipodi:type="arc"
       style="fill:#808080;stroke-width:1.5;stroke-linecap:round;stroke-linejoin:miter;stroke-miterlimit:4;stroke-dasharray:none"
       id="path2985-3-1-9-0"
       sodipodi:cx="142.85715"
       sodipodi:cy="189.50504"
       sodipodi:rx="14.285714"
       sodipodi:ry="14.285714"
       d="m 157.14286,189.50504 c 0,7.88978 -6.39593,14.28571 -14.28571,14.28571 -7.88978,0 -14.28572,-6.39593 -14.28572,-14.28571 0,-7.88979 6.39594,-14.28572 14.28572,-14.28572 7.88978,0 14.28571,6.39593 14.28571,14.28572 z"
       transform="matrix(0.43431457,0,0,0.43431457,-52.044943,56.261877)" />
    <path
       sodipodi:type="arc"
       style="fill:#808080;stroke-width:1.5;stroke-linecap:round;stroke-linejoin:miter;stroke-miterlimit:4;stroke-dasharray:none"
       id="path2985-3-9-2-0-2"
       sodipodi:cx="142.85715"
       sodipodi:cy="189.50504"
       sodipodi:rx="14.285714"
       sodipodi:ry="14.285714"
       d="m 157.14286,189.50504 c 0,7.88978 -6.39593,14.28571 -14.28571,14.28571 -7.88978,0 -14.28572,-6.39593 -14.28572,-14.28571 0,-7.88979 6.39594,-14.28572 14.28572,-14.28572 7.88978,0 14.28571,6.39593 14.28571,14.28572 z"
       transform="matrix(0.43431457,0,0,0.43431457,37.95506,56.261877)" />
    <path
       sodipodi:type="arc"
       style="fill:#808080;stroke-width:1.5;stroke-linecap:round;stroke-linejoin:miter;stroke-miterlimit:4;stroke-dasharray:none"
       id="path2985-3-9-8-8"
       sodipodi:cx="142.85715"
       sodipodi:cy="189.50504"
       sodipodi:rx="14.285714"
       sodipodi:ry="14.285714"
       d="m 157.14286,189.50504 c 0,7.88978 -6.39593,14.28571 -14.28571,14.28571 -7.88978,0 -14.28572,-6.39593 -14.28572,-14.28571 0,-7.88979 6.39594,-14.28572 14.28572,-14.28572 7.88978,0 14.28571,6.39593 14.28571,14.28572 z"
       transform="matrix(0.43431457,0,0,0.43431457,-52.044943,206.26188)" />
    <path
       sodipodi:type="arc"
       style="fill:#808080;stroke-width:1.5;stroke-linecap:round;stroke-linejoin:miter;stroke-miterlimit:4;stroke-dasharray:none"
       id="path2985-1-6-8-6"
       sodipodi:cx="142.85715"
       sodipodi:cy="189.50504"
       sodipodi:rx="14.285714"
       sodipodi:ry="14.285714"
       d="m 157.14286,189.50504 c 0,7.88978 -6.39593,14.28571 -14.28571,14.28571 -7.88978,0 -14.28572,-6.39593 -14.28572,-14.28571 0,-7.88979 6.39594,-14.28572 14.28572,-14.28572 7.88978,0 14.28571,6.39593 14.28571,14.28572 z"
       transform="matrix(0.43431457,0,0,0.43431457,-52.044943,206.26188)" />
    <path
       sodipodi:type="arc"
       style="fill:#808080;stroke-width:1.5;stroke-linecap:round;stroke-linejoin:miter;stroke-miterlimit:4;stroke-dasharray:none"
       id="path2985-3-9-4-6-5"
       sodipodi:cx="142.85715"
       sodipodi:cy="189.50504"
       sodipodi:rx="14.285714"
       sodipodi:ry="14.285714"
       d="m 157.14286,189.50504 c 0,7.88978 -6.39593,14.28571 -14.28571,14.28571 -7.88978,0 -14.28572,-6.39593 -14.28572,-14.28571 0,-7.88979 6.39594,-14.28572 14.28572,-14.28572 7.88978,0 14.28571,6.39593 14.28571,14.28572 z"
       transform="matrix(0.43431457,0,0,0.43431457,-52.044943,281.26189)" />
    <path
       sodipodi:type="arc"
       style="fill:#808080;stroke-width:1.5;stroke-linecap:round;stroke-linejoin:miter;stroke-miterlimit:4;stroke-dasharray:none"
       id="path2985-3-5-15-3"
       sodipodi:cx="142.85715"
       sodipodi:cy="189.50504"
       sodipodi:rx="14.285714"
       sodipodi:ry="14.285714"
       d="m 157.14286,189.50504 c 0,7.88978 -6.39593,14.28571 -14.28571,14.28571 -7.88978,0 -14.28572,-6.39593 -14.28572,-14.28571 0,-7.88979 6.39594,-14.28572 14.28572,-14.28572 7.88978,0 14.28571,6.39593 14.28571,14.28572 z"
       transform="matrix(0.43431457,0,0,0.43431457,-52.044943,206.26188)" />
    <path
       sodipodi:type="arc"
       style="fill:#808080;stroke-width:1.5;stroke-linecap:round;stroke-linejoin:miter;stroke-miterlimit:4;stroke-dasharray:none"
       id="path2985-3-9-7-6-4"
       sodipodi:cx="142.85715"
       sodipodi:cy="189.50504"
       sodipodi:rx="14.285714"
       sodipodi:ry="14.285714"
       d="m 157.14286,189.50504 c 0,7.88978 -6.39593,14.28571 -14.28571,14.28571 -7.88978,0 -14.28572,-6.39593 -14.28572,-14.28571 0,-7.88979 6.39594,-14.28572 14.28572,-14.28572 7.88978,0 14.28571,6.39593 14.28571,14.28572 z"
       transform="matrix(0.43431457,0,0,0.43431457,37.95505,206.26188)" />
    <path
       sodipodi:type="arc"
       style="fill:#808080;stroke-width:1.5;stroke-linecap:round;stroke-linejoin:miter;stroke-miterlimit:4;stroke-dasharray:none"
       id="path2985-11-1-7"
       sodipodi:cx="142.85715"
       sodipodi:cy="189.50504"
       sodipodi:rx="14.285714"
       sodipodi:ry="14.285714"
       d="m 157.14286,189.50504 c 0,7.88978 -6.39593,14.28571 -14.28571,14.28571 -7.88978,0 -14.28572,-6.39593 -14.28572,-14.28571 0,-7.88979 6.39594,-14.28572 14.28572,-14.28572 7.88978,0 14.28571,6.39593 14.28571,14.28572 z"
       transform="matrix(0.43431457,0,0,0.43431457,-52.044943,206.26188)" />
    <path
       sodipodi:type="arc"
       style="fill:#808080;stroke-width:1.5;stroke-linecap:round;stroke-linejoin:miter;stroke-miterlimit:4;stroke-dasharray:none"
       id="path2985-1-4-6-1"
       sodipodi:cx="142.85715"
       sodipodi:cy="189.50504"
       sodipodi:rx="14.285714"
       sodipodi:ry="14.285714"
       d="m 157.14286,189.50504 c 0,7.88978 -6.39593,14.28571 -14.28571,14.28571 -7.88978,0 -14.28572,-6.39593 -14.28572,-14.28571 0,-7.88979 6.39594,-14.28572 14.28572,-14.28572 7.88978,0 14.28571,6.39593 14.28571,14.28572 z"
       transform="matrix(0.43431457,0,0,0.43431457,37.95505,206.26188)" />
    <path
       sodipodi:type="arc"
       style="fill:#808080;stroke-width:1.5;stroke-linecap:round;stroke-linejoin:miter;stroke-miterlimit:4;stroke-dasharray:none"
       id="path2985-3-1-0-7"
       sodipodi:cx="142.85715"
       sodipodi:cy="189.50504"
       sodipodi:rx="14.285714"
       sodipodi:ry="14.285714"
       d="m 157.14286,189.50504 c 0,7.88978 -6.39593,14.28571 -14.28571,14.28571 -7.88978,0 -14.28572,-6.39593 -14.28572,-14.28571 0,-7.88979 6.39594,-14.28572 14.28572,-14.28572 7.88978,0 14.28571,6.39593 14.28571,14.28572 z"
       transform="matrix(0.43431457,0,0,0.43431457,-52.044943,281.26189)" />
    <path
       sodipodi:type="arc"
       style="fill:#808080;stroke-width:1.5;stroke-linecap:round;stroke-linejoin:miter;stroke-miterlimit:4;stroke-dasharray:none"
       id="path2985-3-9-2-7-4"
       sodipodi:cx="142.85715"
       sodipodi:cy="189.50504"
       sodipodi:rx="14.285714"
       sodipodi:ry="14.285714"
       d="m 157.14286,189.50504 c 0,7.88978 -6.39593,14.28571 -14.28571,14.28571 -7.88978,0 -14.28572,-6.39593 -14.28572,-14.28571 0,-7.88979 6.39594,-14.28572 14.28572,-14.28572 7.88978,0 14.28571,6.39593 14.28571,14.28572 z"
       transform="matrix(0.43431457,0,0,0.43431457,37.95505,281.26189)" />
    <path
       sodipodi:type="arc"
       style="fill:#808080;stroke-width:1.5;stroke-linecap:round;stroke-linejoin:miter;stroke-miterlimit:4;stroke-dasharray:none"
       id="path2985-1-8"
       sodipodi:cx="142.85715"
       sodipodi:cy="189.50504"
       sodipodi:rx="14.285714"
       sodipodi:ry="14.285714"
       d="m 157.14286,189.50504 c 0,7.88978 -6.39593,14.28571 -14.28571,14.28571 -7.88978,0 -14.28572,-6.39593 -14.28572,-14.28571 0,-7.88979 6.39594,-14.28572 14.28572,-14.28572 7.88978,0 14.28571,6.39593 14.28571,14.28572 z"
       transform="matrix(0.43431457,0,0,0.43431457,217.95506,56.26188)" />
    <path
       sodipodi:type="arc"
       style="fill:#808080;stroke-width:1.5;stroke-linecap:round;stroke-linejoin:miter;stroke-miterlimit:4;stroke-dasharray:none"
       id="path2985-3-9-24"
       sodipodi:cx="142.85715"
       sodipodi:cy="189.50504"
       sodipodi:rx="14.285714"
       sodipodi:ry="14.285714"
       d="m 157.14286,189.50504 c 0,7.88978 -6.39593,14.28571 -14.28571,14.28571 -7.88978,0 -14.28572,-6.39593 -14.28572,-14.28571 0,-7.88979 6.39594,-14.28572 14.28572,-14.28572 7.88978,0 14.28571,6.39593 14.28571,14.28572 z"
       transform="matrix(0.43431457,0,0,0.43431457,217.95506,131.26188)" />
    <path
       sodipodi:type="arc"
       style="fill:#808080;stroke-width:1.5;stroke-linecap:round;stroke-linejoin:miter;stroke-miterlimit:4;stroke-dasharray:none"
       id="path2985-1-6-0"
       sodipodi:cx="142.85715"
       sodipodi:cy="189.50504"
       sodipodi:rx="14.285714"
       sodipodi:ry="14.285714"
       d="m 157.14286,189.50504 c 0,7.88978 -6.39593,14.28571 -14.28571,14.28571 -7.88978,0 -14.28572,-6.39593 -14.28572,-14.28571 0,-7.88979 6.39594,-14.28572 14.28572,-14.28572 7.88978,0 14.28571,6.39593 14.28571,14.28572 z"
       transform="matrix(0.43431457,0,0,0.43431457,217.95506,131.26188)" />
    <path
       sodipodi:type="arc"
       style="fill:#808080;stroke-width:1.5;stroke-linecap:round;stroke-linejoin:miter;stroke-miterlimit:4;stroke-dasharray:none"
       id="path2985-3-9-4-63"
       sodipodi:cx="142.85715"
       sodipodi:cy="189.50504"
       sodipodi:rx="14.285714"
       sodipodi:ry="14.285714"
       d="m 157.14286,189.50504 c 0,7.88978 -6.39593,14.28571 -14.28571,14.28571 -7.88978,0 -14.28572,-6.39593 -14.28572,-14.28571 0,-7.88979 6.39594,-14.28572 14.28572,-14.28572 7.88978,0 14.28571,6.39593 14.28571,14.28572 z"
       transform="matrix(0.43431457,0,0,0.43431457,217.95506,206.26188)" />
    <path
       sodipodi:type="arc"
       style="fill:#808080;stroke-width:1.5;stroke-linecap:round;stroke-linejoin:miter;stroke-miterlimit:4;stroke-dasharray:none"
       id="path2985-5-0"
       sodipodi:cx="142.85715"
       sodipodi:cy="189.50504"
       sodipodi:rx="14.285714"
       sodipodi:ry="14.285714"
       d="m 157.14286,189.50504 c 0,7.88978 -6.39593,14.28571 -14.28571,14.28571 -7.88978,0 -14.28572,-6.39593 -14.28572,-14.28571 0,-7.88979 6.39594,-14.28572 14.28572,-14.28572 7.88978,0 14.28571,6.39593 14.28571,14.28572 z"
       transform="matrix(0.43431457,0,0,0.43431457,217.95506,56.26188)" />
    <path
       sodipodi:type="arc"
       style="fill:#808080;stroke-width:1.5;stroke-linecap:round;stroke-linejoin:miter;stroke-miterlimit:4;stroke-dasharray:none"
       id="path2985-1-3-8"
       sodipodi:cx="142.85715"
       sodipodi:cy="189.50504"
       sodipodi:rx="14.285714"
       sodipodi:ry="14.285714"
       d="m 157.14286,189.50504 c 0,7.88978 -6.39593,14.28571 -14.28571,14.28571 -7.88978,0 -14.28572,-6.39593 -14.28572,-14.28571 0,-7.88979 6.39594,-14.28572 14.28572,-14.28572 7.88978,0 14.28571,6.39593 14.28571,14.28572 z"
       transform="matrix(0.43431457,0,0,0.43431457,307.95506,56.26188)" />
    <path
       sodipodi:type="arc"
       style="fill:#808080;stroke-width:1.5;stroke-linecap:round;stroke-linejoin:miter;stroke-miterlimit:4;stroke-dasharray:none"
       id="path2985-3-5-87"
       sodipodi:cx="142.85715"
       sodipodi:cy="189.50504"
       sodipodi:rx="14.285714"
       sodipodi:ry="14.285714"
       d="m 157.14286,189.50504 c 0,7.88978 -6.39593,14.28571 -14.28571,14.28571 -7.88978,0 -14.28572,-6.39593 -14.28572,-14.28571 0,-7.88979 6.39594,-14.28572 14.28572,-14.28572 7.88978,0 14.28571,6.39593 14.28571,14.28572 z"
       transform="matrix(0.43431457,0,0,0.43431457,217.95506,131.26188)" />
    <path
       sodipodi:type="arc"
       style="fill:#808080;stroke-width:1.5;stroke-linecap:round;stroke-linejoin:miter;stroke-miterlimit:4;stroke-dasharray:none"
       id="path2985-3-9-7-7"
       sodipodi:cx="142.85715"
       sodipodi:cy="189.50504"
       sodipodi:rx="14.285714"
       sodipodi:ry="14.285714"
       d="m 157.14286,189.50504 c 0,7.88978 -6.39593,14.28571 -14.28571,14.28571 -7.88978,0 -14.28572,-6.39593 -14.28572,-14.28571 0,-7.88979 6.39594,-14.28572 14.28572,-14.28572 7.88978,0 14.28571,6.39593 14.28571,14.28572 z"
       transform="matrix(0.43431457,0,0,0.43431457,307.95506,131.26188)" />
    <path
       sodipodi:type="arc"
       style="fill:#808080;stroke-width:1.5;stroke-linecap:round;stroke-linejoin:miter;stroke-miterlimit:4;stroke-dasharray:none"
       id="path2985-11-7"
       sodipodi:cx="142.85715"
       sodipodi:cy="189.50504"
       sodipodi:rx="14.285714"
       sodipodi:ry="14.285714"
       d="m 157.14286,189.50504 c 0,7.88978 -6.39593,14.28571 -14.28571,14.28571 -7.88978,0 -14.28572,-6.39593 -14.28572,-14.28571 0,-7.88979 6.39594,-14.28572 14.28572,-14.28572 7.88978,0 14.28571,6.39593 14.28571,14.28572 z"
       transform="matrix(0.43431457,0,0,0.43431457,217.95506,131.26188)" />
    <path
       sodipodi:type="arc"
       style="fill:#808080;stroke-width:1.5;stroke-linecap:round;stroke-linejoin:miter;stroke-miterlimit:4;stroke-dasharray:none"
       id="path2985-1-4-8"
       sodipodi:cx="142.85715"
       sodipodi:cy="189.50504"
       sodipodi:rx="14.285714"
       sodipodi:ry="14.285714"
       d="m 157.14286,189.50504 c 0,7.88978 -6.39593,14.28571 -14.28571,14.28571 -7.88978,0 -14.28572,-6.39593 -14.28572,-14.28571 0,-7.88979 6.39594,-14.28572 14.28572,-14.28572 7.88978,0 14.28571,6.39593 14.28571,14.28572 z"
       transform="matrix(0.43431457,0,0,0.43431457,307.95506,131.26188)" />
    <path
       sodipodi:type="arc"
       style="fill:#808080;stroke-width:1.5;stroke-linecap:round;stroke-linejoin:miter;stroke-miterlimit:4;stroke-dasharray:none"
       id="path2985-3-1-7"
       sodipodi:cx="142.85715"
       sodipodi:cy="189.50504"
       sodipodi:rx="14.285714"
       sodipodi:ry="14.285714"
       d="m 157.14286,189.50504 c 0,7.88978 -6.39593,14.28571 -14.28571,14.28571 -7.88978,0 -14.28572,-6.39593 -14.28572,-14.28571 0,-7.88979 6.39594,-14.28572 14.28572,-14.28572 7.88978,0 14.28571,6.39593 14.28571,14.28572 z"
       transform="matrix(0.43431457,0,0,0.43431457,217.95506,206.26188)" />
    <path
       sodipodi:type="arc"
       style="fill:#808080;stroke-width:1.5;stroke-linecap:round;stroke-linejoin:miter;stroke-miterlimit:4;stroke-dasharray:none"
       id="path2985-3-9-2-4"
       sodipodi:cx="142.85715"
       sodipodi:cy="189.50504"
       sodipodi:rx="14.285714"
       sodipodi:ry="14.285714"
       d="m 157.14286,189.50504 c 0,7.88978 -6.39593,14.28571 -14.28571,14.28571 -7.88978,0 -14.28572,-6.39593 -14.28572,-14.28571 0,-7.88979 6.39594,-14.28572 14.28572,-14.28572 7.88978,0 14.28571,6.39593 14.28571,14.28572 z"
       transform="matrix(0.43431457,0,0,0.43431457,307.95506,206.26188)" />
    <path
       sodipodi:type="arc"
       style="fill:#808080;stroke-width:1.5;stroke-linecap:round;stroke-linejoin:miter;stroke-miterlimit:4;stroke-dasharray:none"
       id="path2985-3-9-0-5"
       sodipodi:cx="142.85715"
       sodipodi:cy="189.50504"
       sodipodi:rx="14.285714"
       sodipodi:ry="14.285714"
       d="m 157.14286,189.50504 c 0,7.88978 -6.39593,14.28571 -14.28571,14.28571 -7.88978,0 -14.28572,-6.39593 -14.28572,-14.28571 0,-7.88979 6.39594,-14.28572 14.28572,-14.28572 7.88978,0 14.28571,6.39593 14.28571,14.28572 z"
       transform="matrix(0.43431457,0,0,0.43431457,217.95506,-18.738122)" />
    <path
       sodipodi:type="arc"
       style="fill:#808080;stroke-width:1.5;stroke-linecap:round;stroke-linejoin:miter;stroke-miterlimit:4;stroke-dasharray:none"
       id="path2985-1-6-2-1"
       sodipodi:cx="142.85715"
       sodipodi:cy="189.50504"
       sodipodi:rx="14.285714"
       sodipodi:ry="14.285714"
       d="m 157.14286,189.50504 c 0,7.88978 -6.39593,14.28571 -14.28571,14.28571 -7.88978,0 -14.28572,-6.39593 -14.28572,-14.28571 0,-7.88979 6.39594,-14.28572 14.28572,-14.28572 7.88978,0 14.28571,6.39593 14.28571,14.28572 z"
       transform="matrix(0.43431457,0,0,0.43431457,217.95506,-18.738122)" />
    <path
       sodipodi:type="arc"
       style="fill:#808080;stroke-width:1.5;stroke-linecap:round;stroke-linejoin:miter;stroke-miterlimit:4;stroke-dasharray:none"
       id="path2985-3-9-4-7-8"
       sodipodi:cx="142.85715"
       sodipodi:cy="189.50504"
       sodipodi:rx="14.285714"
       sodipodi:ry="14.285714"
       d="m 157.14286,189.50504 c 0,7.88978 -6.39593,14.28571 -14.28571,14.28571 -7.88978,0 -14.28572,-6.39593 -14.28572,-14.28571 0,-7.88979 6.39594,-14.28572 14.28572,-14.28572 7.88978,0 14.28571,6.39593 14.28571,14.28572 z"
       transform="matrix(0.43431457,0,0,0.43431457,217.95506,56.26188)" />
    <path
       sodipodi:type="arc"
       style="fill:#808080;stroke-width:1.5;stroke-linecap:round;stroke-linejoin:miter;stroke-miterlimit:4;stroke-dasharray:none"
       id="path2985-3-5-1-9"
       sodipodi:cx="142.85715"
       sodipodi:cy="189.50504"
       sodipodi:rx="14.285714"
       sodipodi:ry="14.285714"
       d="m 157.14286,189.50504 c 0,7.88978 -6.39593,14.28571 -14.28571,14.28571 -7.88978,0 -14.28572,-6.39593 -14.28572,-14.28571 0,-7.88979 6.39594,-14.28572 14.28572,-14.28572 7.88978,0 14.28571,6.39593 14.28571,14.28572 z"
       transform="matrix(0.43431457,0,0,0.43431457,217.95506,-18.738122)" />
    <path
       sodipodi:type="arc"
       style="fill:#808080;stroke-width:1.5;stroke-linecap:round;stroke-linejoin:miter;stroke-miterlimit:4;stroke-dasharray:none"
       id="path2985-3-9-7-5-48"
       sodipodi:cx="142.85715"
       sodipodi:cy="189.50504"
       sodipodi:rx="14.285714"
       sodipodi:ry="14.285714"
       d="m 157.14286,189.50504 c 0,7.88978 -6.39593,14.28571 -14.28571,14.28571 -7.88978,0 -14.28572,-6.39593 -14.28572,-14.28571 0,-7.88979 6.39594,-14.28572 14.28572,-14.28572 7.88978,0 14.28571,6.39593 14.28571,14.28572 z"
       transform="matrix(0.43431457,0,0,0.43431457,307.95506,-18.738122)" />
    <path
       sodipodi:type="arc"
       style="fill:#808080;stroke-width:1.5;stroke-linecap:round;stroke-linejoin:miter;stroke-miterlimit:4;stroke-dasharray:none"
       id="path2985-11-2-3"
       sodipodi:cx="142.85715"
       sodipodi:cy="189.50504"
       sodipodi:rx="14.285714"
       sodipodi:ry="14.285714"
       d="m 157.14286,189.50504 c 0,7.88978 -6.39593,14.28571 -14.28571,14.28571 -7.88978,0 -14.28572,-6.39593 -14.28572,-14.28571 0,-7.88979 6.39594,-14.28572 14.28572,-14.28572 7.88978,0 14.28571,6.39593 14.28571,14.28572 z"
       transform="matrix(0.43431457,0,0,0.43431457,217.95506,-18.738122)" />
    <path
       sodipodi:type="arc"
       style="fill:#808080;stroke-width:1.5;stroke-linecap:round;stroke-linejoin:miter;stroke-miterlimit:4;stroke-dasharray:none"
       id="path2985-1-4-0-26"
       sodipodi:cx="142.85715"
       sodipodi:cy="189.50504"
       sodipodi:rx="14.285714"
       sodipodi:ry="14.285714"
       d="m 157.14286,189.50504 c 0,7.88978 -6.39593,14.28571 -14.28571,14.28571 -7.88978,0 -14.28572,-6.39593 -14.28572,-14.28571 0,-7.88979 6.39594,-14.28572 14.28572,-14.28572 7.88978,0 14.28571,6.39593 14.28571,14.28572 z"
       transform="matrix(0.43431457,0,0,0.43431457,307.95506,-18.738122)" />
    <path
       sodipodi:type="arc"
       style="fill:#808080;stroke-width:1.5;stroke-linecap:round;stroke-linejoin:miter;stroke-miterlimit:4;stroke-dasharray:none"
       id="path2985-3-1-9-9"
       sodipodi:cx="142.85715"
       sodipodi:cy="189.50504"
       sodipodi:rx="14.285714"
       sodipodi:ry="14.285714"
       d="m 157.14286,189.50504 c 0,7.88978 -6.39593,14.28571 -14.28571,14.28571 -7.88978,0 -14.28572,-6.39593 -14.28572,-14.28571 0,-7.88979 6.39594,-14.28572 14.28572,-14.28572 7.88978,0 14.28571,6.39593 14.28571,14.28572 z"
       transform="matrix(0.43431457,0,0,0.43431457,217.95506,56.26188)" />
    <path
       sodipodi:type="arc"
       style="fill:#808080;stroke-width:1.5;stroke-linecap:round;stroke-linejoin:miter;stroke-miterlimit:4;stroke-dasharray:none"
       id="path2985-3-9-2-0-7"
       sodipodi:cx="142.85715"
       sodipodi:cy="189.50504"
       sodipodi:rx="14.285714"
       sodipodi:ry="14.285714"
       d="m 157.14286,189.50504 c 0,7.88978 -6.39593,14.28571 -14.28571,14.28571 -7.88978,0 -14.28572,-6.39593 -14.28572,-14.28571 0,-7.88979 6.39594,-14.28572 14.28572,-14.28572 7.88978,0 14.28571,6.39593 14.28571,14.28572 z"
       transform="matrix(0.43431457,0,0,0.43431457,307.95506,56.26188)" />
    <path
       sodipodi:type="arc"
       style="fill:#808080;stroke-width:1.5;stroke-linecap:round;stroke-linejoin:miter;stroke-miterlimit:4;stroke-dasharray:none"
       id="path2985-3-9-8-2"
       sodipodi:cx="142.85715"
       sodipodi:cy="189.50504"
       sodipodi:rx="14.285714"
       sodipodi:ry="14.285714"
       d="m 157.14286,189.50504 c 0,7.88978 -6.39593,14.28571 -14.28571,14.28571 -7.88978,0 -14.28572,-6.39593 -14.28572,-14.28571 0,-7.88979 6.39594,-14.28572 14.28572,-14.28572 7.88978,0 14.28571,6.39593 14.28571,14.28572 z"
       transform="matrix(0.43431457,0,0,0.43431457,217.95506,206.26188)" />
    <path
       sodipodi:type="arc"
       style="fill:#808080;stroke-width:1.5;stroke-linecap:round;stroke-linejoin:miter;stroke-miterlimit:4;stroke-dasharray:none"
       id="path2985-1-6-8-60"
       sodipodi:cx="142.85715"
       sodipodi:cy="189.50504"
       sodipodi:rx="14.285714"
       sodipodi:ry="14.285714"
       d="m 157.14286,189.50504 c 0,7.88978 -6.39593,14.28571 -14.28571,14.28571 -7.88978,0 -14.28572,-6.39593 -14.28572,-14.28571 0,-7.88979 6.39594,-14.28572 14.28572,-14.28572 7.88978,0 14.28571,6.39593 14.28571,14.28572 z"
       transform="matrix(0.43431457,0,0,0.43431457,217.95506,206.26188)" />
    <path
       sodipodi:type="arc"
       style="fill:#808080;stroke-width:1.5;stroke-linecap:round;stroke-linejoin:miter;stroke-miterlimit:4;stroke-dasharray:none"
       id="path2985-3-9-4-6-9"
       sodipodi:cx="142.85715"
       sodipodi:cy="189.50504"
       sodipodi:rx="14.285714"
       sodipodi:ry="14.285714"
       d="m 157.14286,189.50504 c 0,7.88978 -6.39593,14.28571 -14.28571,14.28571 -7.88978,0 -14.28572,-6.39593 -14.28572,-14.28571 0,-7.88979 6.39594,-14.28572 14.28572,-14.28572 7.88978,0 14.28571,6.39593 14.28571,14.28572 z"
       transform="matrix(0.43431457,0,0,0.43431457,217.95506,281.26189)" />
    <path
       sodipodi:type="arc"
       style="fill:#808080;stroke-width:1.5;stroke-linecap:round;stroke-linejoin:miter;stroke-miterlimit:4;stroke-dasharray:none"
       id="path2985-3-5-15-2"
       sodipodi:cx="142.85715"
       sodipodi:cy="189.50504"
       sodipodi:rx="14.285714"
       sodipodi:ry="14.285714"
       d="m 157.14286,189.50504 c 0,7.88978 -6.39593,14.28571 -14.28571,14.28571 -7.88978,0 -14.28572,-6.39593 -14.28572,-14.28571 0,-7.88979 6.39594,-14.28572 14.28572,-14.28572 7.88978,0 14.28571,6.39593 14.28571,14.28572 z"
       transform="matrix(0.43431457,0,0,0.43431457,217.95506,206.26188)" />
    <path
       sodipodi:type="arc"
       style="fill:#808080;stroke-width:1.5;stroke-linecap:round;stroke-linejoin:miter;stroke-miterlimit:4;stroke-dasharray:none"
       id="path2985-3-9-7-6-1"
       sodipodi:cx="142.85715"
       sodipodi:cy="189.50504"
       sodipodi:rx="14.285714"
       sodipodi:ry="14.285714"
       d="m 157.14286,189.50504 c 0,7.88978 -6.39593,14.28571 -14.28571,14.28571 -7.88978,0 -14.28572,-6.39593 -14.28572,-14.28571 0,-7.88979 6.39594,-14.28572 14.28572,-14.28572 7.88978,0 14.28571,6.39593 14.28571,14.28572 z"
       transform="matrix(0.43431457,0,0,0.43431457,307.95505,206.26188)" />
    <path
       sodipodi:type="arc"
       style="fill:#808080;stroke-width:1.5;stroke-linecap:round;stroke-linejoin:miter;stroke-miterlimit:4;stroke-dasharray:none"
       id="path2985-11-1-1"
       sodipodi:cx="142.85715"
       sodipodi:cy="189.50504"
       sodipodi:rx="14.285714"
       sodipodi:ry="14.285714"
       d="m 157.14286,189.50504 c 0,7.88978 -6.39593,14.28571 -14.28571,14.28571 -7.88978,0 -14.28572,-6.39593 -14.28572,-14.28571 0,-7.88979 6.39594,-14.28572 14.28572,-14.28572 7.88978,0 14.28571,6.39593 14.28571,14.28572 z"
       transform="matrix(0.43431457,0,0,0.43431457,217.95506,206.26188)" />
    <path
       sodipodi:type="arc"
       style="fill:#808080;stroke-width:1.5;stroke-linecap:round;stroke-linejoin:miter;stroke-miterlimit:4;stroke-dasharray:none"
       id="path2985-1-4-6-6"
       sodipodi:cx="142.85715"
       sodipodi:cy="189.50504"
       sodipodi:rx="14.285714"
       sodipodi:ry="14.285714"
       d="m 157.14286,189.50504 c 0,7.88978 -6.39593,14.28571 -14.28571,14.28571 -7.88978,0 -14.28572,-6.39593 -14.28572,-14.28571 0,-7.88979 6.39594,-14.28572 14.28572,-14.28572 7.88978,0 14.28571,6.39593 14.28571,14.28572 z"
       transform="matrix(0.43431457,0,0,0.43431457,307.95505,206.26188)" />
    <path
       sodipodi:type="arc"
       style="fill:#808080;stroke-width:1.5;stroke-linecap:round;stroke-linejoin:miter;stroke-miterlimit:4;stroke-dasharray:none"
       id="path2985-3-1-0-1"
       sodipodi:cx="142.85715"
       sodipodi:cy="189.50504"
       sodipodi:rx="14.285714"
       sodipodi:ry="14.285714"
       d="m 157.14286,189.50504 c 0,7.88978 -6.39593,14.28571 -14.28571,14.28571 -7.88978,0 -14.28572,-6.39593 -14.28572,-14.28571 0,-7.88979 6.39594,-14.28572 14.28572,-14.28572 7.88978,0 14.28571,6.39593 14.28571,14.28572 z"
       transform="matrix(0.43431457,0,0,0.43431457,217.95506,281.26189)" />
    <path
       sodipodi:type="arc"
       style="fill:#808080;stroke-width:1.5;stroke-linecap:round;stroke-linejoin:miter;stroke-miterlimit:4;stroke-dasharray:none"
       id="path2985-3-9-2-7-9"
       sodipodi:cx="142.85715"
       sodipodi:cy="189.50504"
       sodipodi:rx="14.285714"
       sodipodi:ry="14.285714"
       d="m 157.14286,189.50504 c 0,7.88978 -6.39593,14.28571 -14.28571,14.28571 -7.88978,0 -14.28572,-6.39593 -14.28572,-14.28571 0,-7.88979 6.39594,-14.28572 14.28572,-14.28572 7.88978,0 14.28571,6.39593 14.28571,14.28572 z"
       transform="matrix(0.43431457,0,0,0.43431457,307.95505,281.26189)" />
    <path
       style="fill:none;stroke:#ff0000;stroke-width:3;stroke-linecap:butt;stroke-linejoin:miter;stroke-miterlimit:4;stroke-opacity:1;stroke-dasharray:none"
       d="m 410,122.36218 140,0"
       id="path4349"
       inkscape:connector-curvature="0" />
    <text
       xml:space="preserve"
       style="font-size:10px;font-style:normal;font-weight:normal;text-align:start;line-height:125%;letter-spacing:0px;word-spacing:0px;text-anchor:start;fill:#000000;fill-opacity:1;stroke:none;font-family:Sans"
       x="410"
       y="112.36218"
       id="text4351"
       sodipodi:linespacing="125%"><tspan
         sodipodi:role="line"
         id="tspan4353"
         x="410"
         y="112.36218"
         style="font-size:20px">Shear Springs</tspan></text>
    <path
       style="fill:none;stroke:#00ff00;stroke-width:3;stroke-linecap:butt;stroke-linejoin:miter;stroke-miterlimit:4;stroke-opacity:1;stroke-dasharray:none"
       d="m 410,182.36218 140,0"
       id="path4349-0"
       inkscape:connector-curvature="0" />
    <text
       xml:space="preserve"
       style="font-size:10px;font-style:normal;font-weight:normal;text-align:start;line-height:125%;letter-spacing:0px;word-spacing:0px;text-anchor:start;fill:#000000;fill-opacity:1;stroke:none;font-family:Sans"
       x="410"
       y="172.36218"
       id="text4351-1"
       sodipodi:linespacing="125%"><tspan
         sodipodi:role="line"
         id="tspan4353-6"
         x="410"
         y="172.36218"
         style="font-size:20px">Bend Springs</tspan></text>
    <path
       style="fill:none;stroke:#0000ff;stroke-width:3;stroke-linecap:butt;stroke-linejoin:miter;stroke-miterlimit:4;stroke-opacity:1;stroke-dasharray:none"
       d="m 410,242.36218 140,0"
       id="path4349-7"
       inkscape:connector-curvature="0" />
    <text
       xml:space="preserve"
       style="font-size:10px;font-style:normal;font-weight:normal;text-align:start;line-height:125%;letter-spacing:0px;word-spacing:0px;text-anchor:start;fill:#000000;fill-opacity:1;stroke:none;font-family:Sans"
       x="410"
       y="232.36218"
       id="text4351-2"
       sodipodi:linespacing="125%"><tspan
         sodipodi:role="line"
         id="tspan4353-61"
         x="410"
         y="232.36218"
         style="font-size:20px">Stretch Springs</tspan></text>
  </g>
</svg>
